<svg xmlns="http://www.w3.org/2000/svg" viewBox="0 0 831.14 209.48"><defs><style>.cls-1{fill:#9ac31c;}.cls-2{fill:#575756;}</style></defs><g id="Layer_2" data-name="Layer 2"><g id="Layer_1-2" data-name="Layer 1"><path class="cls-1" d="M129.78,78.13H105.2L67.69,118.56V78.13H47.34v92.48H67.69V142.34l10.7-11.1,28.67,39.37H131.5L92.13,117.37ZM172.6,0a36.88,36.88,0,0,0-36.88,36.88c0,.85.07,1.68.13,2.53-1-.08-1.9-.15-2.87-.15H37.23A37.24,37.24,0,0,0,0,76.49v95.75a37.23,37.23,0,0,0,37.23,37.24H133a37.24,37.24,0,0,0,37.24-37.24V76.49c0-1-.08-1.91-.15-2.86.84.06,1.67.13,2.53.13A36.88,36.88,0,0,0,172.6,0ZM152.13,172.24A19.16,19.16,0,0,1,133,191.4H37.23a19.16,19.16,0,0,1-19.15-19.16V76.49A19.15,19.15,0,0,1,37.23,57.35H133A19.07,19.07,0,0,1,146.51,63h0a19.08,19.08,0,0,1,5.6,13.53ZM172.6,55.67a18.73,18.73,0,0,1-13.29-5.5,0,0,0,0,1,0,0,18.79,18.79,0,1,1,13.3,5.51Z"/><path class="cls-2" d="M450.78,101.46h21.78V159h12.17V101.46h21.79V90.27H450.78ZM394.32,120.7,375.08,90.27H360.86l27.28,41.61V159h12.17V131.59l27.28-41.32H413.76Zm-80.08,9h34.44V118.93H314.24V101.06H353.1V90.27H302.18V159H353.6v-10.8H314.24ZM292.19,90.27H277.37l-32.68,34.54V90.27H232.62V159h12.07V139l10.7-11L278.85,159h14.62l-29.84-39.16ZM795,148V90.27H783V159h48.18V148ZM573,112.15V112a20.78,20.78,0,0,0-5.69-14.82c-4.42-4.32-11.19-6.87-19.83-6.87H516.89V159H529V135h15.12L561,159h14.23l-18.55-26C566.25,130.21,573,123.44,573,112.15ZM529,124.32V101.26h17.57c8.94,0,14.23,4,14.23,11.39v.19c0,7-5.49,11.48-14.13,11.48Zm83.22-34.54L581.94,159h12.37l7.07-16.58h32.48l7,16.58h12.76L623.37,89.78Zm-6.38,41.9,11.79-27.48,11.86,27.48Zm73.15,11.39-20.71-52.8H644.89l28.55,69.18H684L712.6,90.27H699.55Zm55.11-13.35H768.5V118.93H734.05V101.06h38.87V90.27H722V159h51.43v-10.8H734.05Z"/></g></g></svg>